<svg xmlns="http://www.w3.org/2000/svg" width="77" height="77" viewBox="0 0 77 77">
  <path d="M37 27C37 24.790861 35.209139 23 33 23 30.790861 23 29 24.790861 29 27 29 29.209139 30.790861 31 33 31 35.209139 31 37 29.209139 37 27L37 27zM33 28.3333333C32.2636203 28.3333333 31.6666667 27.7363797 31.6666667 27 31.6666667 26.2636203 32.2636203 25.6666667 33 25.6666667 33.7363797 25.6666667 34.3333333 26.2636203 34.3333333 27 34.3333333 27.7363797 33.7363797 28.3333333 33 28.3333333zM48 27C48 24.790861 46.209139 23 44 23 41.790861 23 40 24.790861 40 27 40 29.209139 41.790861 31 44 31 46.209139 31 48 29.209139 48 27zM44 28.3333333C43.2636203 28.3333333 42.6666667 27.7363797 42.6666667 27 42.6666667 26.2636203 43.2636203 25.6666667 44 25.6666667 44.7363797 25.6666667 45.3333333 26.2636203 45.3333333 27 45.3333333 27.7363797 44.7363797 28.3333333 44 28.3333333z"/>
  <rect width="3" height="3" x="47" y="53"/>
  <rect width="3" height="3" x="42" y="53"/>
  <rect width="3" height="3" x="47" y="48"/>
  <rect width="3" height="3" x="47" y="43"/>
  <rect width="3" height="3" x="42" y="48"/>
  <rect width="3" height="3" x="38" y="53"/>
  <path d="M71.8666667,19.2609443 C71.293674,19.2613624 70.7903832,19.6414798 70.6333833,20.1923989 L68.0757,29.1400075 L65.51545,36.8200169 C65.5090333,36.8392618 65.4910667,36.9021286 65.4885,36.9149585 L64.4477167,41.071863 L54.9651667,41.071863 L54.67,38.5058726 L61.6,38.5058726 C62.1890121,38.5057099 62.7022924,38.1047161 62.8448333,37.5333622 L64.1281667,32.4013814 L64.141,32.3423636 L65.4243333,25.9273875 L65.4320333,25.8863317 L66.6986833,18.289717 L70.5178833,6.83641866 C71.2129951,5.26636487 71.0731922,3.45229802 70.1457167,2.00722466 C68.9958929,0.62173428 67.2455631,-0.120489328 65.45,0.0160160822 C64.8770073,0.0164341237 64.3737166,0.396551527 64.2167167,0.94747061 L62.2416667,7.85639986 L60.2666167,0.94747061 C60.1096168,0.396551527 59.606326,0.0164341237 59.0333333,0.0160160822 C57.2377703,-0.120489328 55.4874405,0.62173428 54.3376167,2.00722466 C53.4101411,3.45229802 53.2703383,5.26636487 53.96545,6.83641866 L57.71535,18.0818717 L56.4884833,25.4424153 L55.4143333,30.8079013 L21.5856667,30.8079013 L20.5115167,25.4424153 L19.28465,18.0818717 L23.03455,6.83641866 C23.7296617,5.26636487 23.5898589,3.45229802 22.6623833,2.00722466 C21.5125595,0.62173428 19.7622297,-0.120489328 17.9666667,0.0160160822 C17.393674,0.0164341237 16.8903832,0.396551527 16.7333833,0.94747061 L14.7583333,7.85639986 L12.7832833,0.94747061 C12.6262834,0.396551527 12.1229927,0.0164341237 11.55,0.0160160822 C9.75443695,-0.120489328 8.00410712,0.62173428 6.85428333,2.00722466 C5.9268078,3.45229802 5.78700492,5.26636487 6.48211667,6.83641866 L10.3013167,18.289717 L11.5679667,25.8863317 L11.5756667,25.9273875 L12.859,32.3423636 L12.8718333,32.4013814 L14.1551667,37.5333622 C14.2977076,38.1047161 14.8109879,38.5057099 15.4,38.5058726 L22.3364167,38.5058726 L22.0348333,41.071863 L12.5522833,41.071863 L11.5115,36.9123926 C11.5115,36.8995626 11.4909667,36.8366958 11.48455,36.8174509 L8.9243,29.1400075 L6.36661667,20.1923989 C6.20961678,19.6414798 5.70632602,19.2613624 5.13333333,19.2609443 C0.143733333,19.2609443 0,28.475416 0,29.5249061 C0.010371,29.6616482 0.032265341,29.7972715 0.06545,29.9303326 L2.618,37.583399 L5.17183333,47.797324 C5.31437424,48.3686779 5.82765457,48.7696717 6.41666667,48.7698344 L21.1288,48.7698344 L20.8259333,51.3358248 L12.8333333,51.3358248 C12.3082037,51.3356321 11.8359397,51.6553046 11.6411167,52.1428288 L9.07445,58.5578049 L5.26166667,67.4656407 L1.41808333,75.1392351 C1.21924583,75.5370426 1.24064532,76.0094192 1.47463779,76.3876291 C1.70863026,76.765839 2.12184019,76.9959364 2.56666667,76.9957291 L6.41666667,76.9957291 C8.61361543,77.0849569 10.6245774,75.768897 11.4216667,73.7202423 L14.0191333,68.5202627 L17.52905,60.3167913 L59.47095,60.3167913 L62.9872833,68.5202627 C62.9872833,68.5292437 63.0001167,68.5369417 63.0039667,68.5472056 C63.0078167,68.5574696 63.0116667,68.5754315 63.0180833,68.5882615 L65.58475,73.7202423 C66.3810685,75.7665968 68.3886984,77.0821626 70.5833333,76.9957291 L74.4333333,76.9957291 C74.8793006,76.9981695 75.2945586,76.768968 75.5301004,76.3903689 C75.7656422,76.0117699 75.7876904,75.5380654 75.5883333,75.1392351 L71.7383333,67.4656407 L67.92555,58.5590879 L65.3588833,52.1441118 C65.164468,51.6560835 64.6921136,51.3358415 64.1666667,51.3358248 L56.1740667,51.3358248 L55.8712,48.7698344 L70.5833333,48.7698344 C71.1723454,48.7696717 71.6856258,48.3686779 71.8281667,47.797324 L74.382,37.583399 L76.93455,29.9303326 C76.9677347,29.7972715 76.989629,29.6616482 77,29.5249061 C77,28.475416 76.8562667,19.2609443 71.8666667,19.2609443 Z M72.7136667,22.2503232 C73.6607667,23.2536255 74.23185,25.8696527 74.3884167,28.2419109 L71.0017,28.2419109 L72.7136667,22.2503232 Z M72.2247167,35.9398822 L68.5133167,35.9398822 L70.2252833,30.8079013 L73.9366833,30.8079013 L72.2247167,35.9398822 Z M66.2366833,11.562973 L64.5247167,16.6949539 L59.9586167,16.6949539 L58.24665,11.562973 L66.2366833,11.562973 Z M60.1203167,19.2609443 L63.9343833,19.2609443 L63.0796833,24.3929252 L59.2656167,24.3929252 L60.1203167,19.2609443 Z M66.3958167,2.65898623 C67.0393457,2.72004878 67.6356609,3.02317225 68.06415,3.50704607 C68.4426105,4.30253661 68.4491894,5.22475944 68.0821167,6.02556568 L67.0913833,8.99698261 L64.5850333,8.99698261 L66.3958167,2.65898623 Z M56.4191833,3.50704607 C56.8476724,3.02317225 57.4439876,2.72004878 58.0875167,2.65898623 L59.8983,8.99698261 L57.39195,8.99698261 L56.4012167,6.02556568 C56.0341439,5.22475944 56.0407229,4.30253661 56.4191833,3.50704607 L56.4191833,3.50704607 Z M58.8023333,26.9589157 L62.601,26.9589157 L61.831,30.8079013 L58.0323333,30.8079013 L58.8023333,26.9589157 Z M61.2406667,33.3738917 L60.599,35.9398822 L54.362,35.9398822 L54.0591333,33.3738917 L61.2406667,33.3738917 Z M18.75335,11.562973 L17.0413833,16.6949539 L12.4752833,16.6949539 L10.7633167,11.562973 L18.75335,11.562973 Z M16.8796833,19.2609443 L17.7343833,24.3929252 L13.9203167,24.3929252 L13.0656167,19.2609443 L16.8796833,19.2609443 Z M14.399,26.9589157 L18.1976667,26.9589157 L18.9676667,30.8079013 L15.169,30.8079013 L14.399,26.9589157 Z M18.9124833,2.65898623 C19.5560124,2.72004878 20.1523276,3.02317225 20.5808167,3.50704607 C20.9592771,4.30253661 20.9658561,5.22475944 20.5987833,6.02556568 L19.60805,8.99698261 L17.1017,8.99698261 L18.9124833,2.65898623 Z M8.93585,3.50704607 C9.3643391,3.02317225 9.96065431,2.72004878 10.6041833,2.65898623 L12.4149667,8.99698261 L9.90861667,8.99698261 L8.91788333,6.02556568 C8.55081058,5.22475944 8.55738955,4.30253661 8.93585,3.50704607 L8.93585,3.50704607 Z M16.4022833,35.9398822 L15.7606167,33.3738917 L22.9472833,33.3738917 L22.6444167,35.9398822 L16.4022833,35.9398822 Z M3.06331667,30.8079013 L6.77471667,30.8079013 L8.48668333,35.9398822 L4.77528333,35.9398822 L3.06331667,30.8079013 Z M4.28376667,22.2413422 L5.9983,28.2419109 L2.61415,28.2419109 C2.76686667,26.060819 3.29046667,23.2780024 4.28376667,22.2413422 L4.28376667,22.2413422 Z M7.41895,46.2038439 L5.49395,38.5058726 L9.26438333,38.5058726 L11.1893833,46.2038439 L7.41895,46.2038439 Z M13.8356167,46.2038439 L13.19395,43.6378535 L21.7319667,43.6378535 L21.4316667,46.2038439 L13.8356167,46.2038439 Z M13.7072833,53.9018152 L20.5448833,53.9018152 C20.426097,55.2714435 20.8051821,56.6379769 21.6126167,57.7508009 L12.1672833,57.7508009 L13.7072833,53.9018152 Z M9.11808333,72.5732446 C8.75961174,73.7452593 7.6396048,74.5149615 6.41666667,74.4297387 L4.6431,74.4297387 L7.20976667,69.2977578 L10.7569,69.2977578 L9.11808333,72.5732446 Z M11.9876167,66.7317674 L8.36348333,66.7317674 L11.1123833,60.3167913 L14.7365167,60.3167913 L11.9876167,66.7317674 Z M26.95,57.7508009 C25.7958017,57.788437 24.6786527,57.3407644 23.87,56.5165595 C23.269563,55.8446176 22.9888384,54.9460678 23.1,54.0519257 L25.5242167,33.3738917 L51.4757833,33.3738917 L53.9064167,54.0301147 C54.0223855,54.9313304 53.7414521,55.8385062 53.1364167,56.5165595 C52.3262362,57.3424379 51.2064038,57.7902528 50.05,57.7508009 L26.95,57.7508009 Z M70.5833333,74.4297387 C69.3627128,74.511867 68.246267,73.7427854 67.8883333,72.5732446 L66.2431,69.2977578 L69.7902333,69.2977578 L72.3569,74.4297387 L70.5833333,74.4297387 Z M65.0123833,66.7317674 L62.2634833,60.3167913 L65.8876167,60.3167913 L68.6365167,66.7317674 L65.0123833,66.7317674 Z M64.83785,57.7508009 L55.3912333,57.7508009 C56.198003,56.6377017 56.5766061,55.2712636 56.4576833,53.9018152 L63.29785,53.9018152 L64.83785,57.7508009 Z M55.2680333,43.6378535 L63.80605,43.6378535 L63.1643833,46.2038439 L55.5683333,46.2038439 L55.2680333,43.6378535 Z M69.58105,46.2038439 L65.8106167,46.2038439 L67.7356167,38.5058726 L71.50605,38.5058726 L69.58105,46.2038439 Z"/>
</svg>
