<svg xmlns="http://www.w3.org/2000/svg" width="64" height="77" viewBox="0 0 64 77">
  <path d="M42.3950502,6 L21.6081292,6 C13.8624027,6 6.43237767,12.5898154 6.01793843,19.8945695 L6.01793843,45.0866871 C5.86527348,47.3600789 6.69223186,49.5927509 8.30060219,51.2495602 C10.0885629,53.0336464 12.5503503,54.0274747 15.1122164,53.9994218 L48.890963,53.9994218 C51.4519301,54.0267812 53.9126431,53.0330076 55.6999788,51.2495602 C57.2953948,49.6134421 58.1226912,47.4080043 57.9852409,45.1574231 L57.9852409,19.8250966 C57.5708017,12.5898154 50.1407766,6 42.3950502,6 Z M55.3868758,45.228159 C55.49589,46.8077058 54.9245601,48.3602157 53.8096682,49.5140022 C52.5143188,50.7930743 50.7369924,51.5009885 48.890963,51.4731365 L15.1122164,51.4731365 C13.2652896,51.5016824 11.4868886,50.7937142 10.1909128,49.5140022 C9.06325752,48.3393616 8.49231562,46.7596976 8.61630356,45.1574231 L8.61630356,19.9640423 C8.95019348,14.0841131 15.2642207,8.52628536 21.6081292,8.52628536 L42.3950502,8.52628536 C48.7389586,8.52628536 55.0529859,14.0841131 55.3868758,19.8945695 L55.3868758,45.228159 Z"/>
  <path d="M42.24,0 L21.76,0 C9.74783989,0.0134378018 0.0134028984,9.77322489 0,21.8166667 L0,51.3333333 C0.0134011113,62.6680102 9.1747639,71.8532307 20.48,71.8666667 L20.48,73.15 C20.48,75.2762963 22.1992266,77 24.32,77 L39.68,77 C41.8007734,77 43.52,75.2762963 43.52,73.15 L43.52,71.8666667 C54.8252361,71.8532307 63.9865989,62.6680102 64,51.3333333 L64,21.8166667 C63.9865971,9.77322489 54.2521601,0.0134378018 42.24,0 Z M40.96,73.15 C40.96,73.8587654 40.3869245,74.4333333 39.68,74.4333333 L24.32,74.4333333 C23.6130755,74.4333333 23.04,73.8587654 23.04,73.15 L23.04,71.8666667 L40.96,71.8666667 L40.96,73.15 Z M61.44,51.3333333 C61.4294178,61.2516513 53.4125561,69.2893903 43.52,69.3 L20.48,69.3 C10.5874439,69.2893903 2.57058217,61.2516513 2.56,51.3333333 L2.56,21.8166667 C2.57199171,11.1901693 11.1611039,2.5786896 21.76,2.56666667 L42.24,2.56666667 C52.8388961,2.5786896 61.4280083,11.1901693 61.44,21.8166667 L61.44,51.3333333 Z"/>
  <path d="M18.2499366 58.25C18.2499366 57.5596441 17.6902489 57 16.9998392 57L8.24915757 57C7.84754227 57.0003048 7.47052908 57.1935322 7.23578502 57.5193751 7.00104096 57.8452181 6.93715467 58.2639934 7.06406526 58.645 7.17782412 58.98625 9.97179175 67 20.7501313 67 21.2553445 66.999893 21.71083 66.6957239 21.9044822 66.229135 22.0981344 65.762546 21.9918808 65.2252701 21.6352002 64.8675 21.6014476 64.83375 18.2499366 61.4275 18.2499366 58.25zM10.2943169 59.5L15.8597504 59.5C16.2166618 61.2184158 16.9290496 62.8431976 17.9511633 64.27 14.8397905 63.8324097 12.0585136 62.0997524 10.2943169 59.5zM55.7508424 57L47.0001608 57C46.3097511 57 45.7500634 57.5596441 45.7500634 58.25 45.7500634 61.4275 42.3985524 64.83375 42.3647998 64.8675 42.0081192 65.2252701 41.9018656 65.762546 42.0955178 66.229135 42.28917 66.6957239 42.7446555 66.999893 43.2498687 67 54.0282083 67 56.8221759 58.98625 56.9359347 58.645 57.0628453 58.2639934 56.998959 57.8452181 56.764215 57.5193751 56.5294709 57.1935322 56.1524577 57.0003048 55.7508424 57zM46.0513369 64.26625C47.0726363 62.8406641 47.7841986 61.2171 48.1402496 59.5L53.6931822 59.5C51.9235306 62.0863425 49.1526013 63.8145824 46.0513369 64.26625zM28.2501901 58.2499957C28.2501901 57.5596422 27.6345674 57 26.8751584 57L21.3750317 57C20.6156227 57 20 57.5596422 20 58.2499957 20 64.0312261 26.1491417 66.4899677 29.3997166 66.982466 29.4741472 66.9944936 29.5496256 67.0003509 29.6252218 66.9999838 30.1812789 66.999858 30.6825305 66.6953076 30.8953083 66.2282868 31.1080861 65.7612659 30.9905016 65.2237148 30.5973692 64.8662232 28.290066 62.7687304 28.2501901 58.2937456 28.2501901 58.2499957zM22.8971918 59.4999915L25.5785035 59.4999915C25.7130896 60.8474784 26.0322754 62.1744098 26.5286504 63.449978 24.7349485 62.6865517 23.4052388 61.2402086 22.8971918 59.4999915zM42.6249683 57L37.1248416 57C36.3654326 57 35.7498099 57.5596422 35.7498099 58.2499957 35.7498099 59.5 35.3276752 63.1162292 33.4026308 64.8662232 33.0094984 65.2237148 32.8919139 65.7612659 33.1046917 66.2282868 33.3174695 66.6953076 33.8187211 66.999858 34.3747782 66.9999838 34.4503744 67.0003509 34.5258528 66.9944936 34.6002834 66.982466 37.8508583 66.4899677 44 64.0312261 44 58.2499957 44 57.5596422 43.3843773 57 42.6249683 57zM37.4713496 63.449978C37.9677246 62.1744098 38.2869104 60.8474784 38.4214965 59.4999915L41.1028082 59.4999915C40.5947612 61.2402086 39.2650515 62.6865517 37.4713496 63.449978zM16.3152973 14.5660377C17.2557782 14.0245283 18.5998664 14.2041509 20.3044088 15.0943396 23.2857715 16.6449057 25.8140281 16.9183019 27.8142953 15.8973585 29.4317189 14.9869072 30.5928961 13.3944028 31 11.5283019L28.512358 11C28.2642992 12.0600173 27.6085117 12.9673674 26.698664 13.509434 25.4637275 14.1367925 23.6449566 13.864717 21.4390782 12.7169811 18.9400134 11.4186792 16.8039412 11.2575472 15.0930528 12.2428302 12.3985304 13.7920755 12.0152305 17.5720755 12 17.7332075L14.5257181 18C14.6375316 16.6462239 15.285941 15.4020134 16.3152973 14.5660377zM21.5 18C17.3578644 18 14 21.3578644 14 25.5 14 29.6421356 17.3578644 33 21.5 33 25.6421356 33 29 29.6421356 29 25.5 28.9958658 21.359578 25.640422 18.0041342 21.5 18zM21.5 30.5C18.7385763 30.5 16.5 28.2614237 16.5 25.5 16.5 22.7385763 18.7385763 20.5 21.5 20.5 24.2614237 20.5 26.5 22.7385763 26.5 25.5 26.5 28.2614237 24.2614237 30.5 21.5 30.5z"/>
  <circle cx="22" cy="26" r="3"/>
  <rect width="3" height="3" x="29" y="33"/>
  <path d="M16.677557 37.7305232C19.7329848 38.5999873 22.9491392 38.5904346 26 37.7028334L25.2204573 35.1975695C22.614323 35.924529 19.8761939 35.9149872 17.2745486 35.1698797 15.7376646 34.6913057 14.0821625 35.2441512 13.0734054 36.5728275 11.8537208 38.3165199 11.6575949 40.6462266 12.5664559 42.594691 13.8048434 45.3953125 16.7601984 47 20.6764139 47L20.6764139 44.36288C17.7531287 44.36288 15.6106196 43.308032 14.7965402 41.4699594 14.2968467 40.4418145 14.3674949 39.203038 14.9803248 38.2473987 15.3887733 37.7118055 16.0663922 37.5054433 16.677557 37.7305232zM48.9026702 12.2513228C47.1865821 11.2645503 45.0506676 11.4259259 42.5545394 12.7261905 40.3640854 13.8716931 38.5503338 14.1494709 37.31749 13.5304233 36.3981583 12.9865571 35.734972 12.0709292 35.484713 11L34.2429907 11.2645503 33 11.5291005C33.4094777 13.394083 34.5695458 14.9846799 36.1835781 15.8941799 38.1837784 16.9153439 40.7090788 16.6428571 43.6884513 15.0899471 45.3905874 14.2010582 46.73251 14.021164 47.6672897 14.5608466 48.7036096 15.3932125 49.3574688 16.6408829 49.4696262 18L52 17.7460317C51.9784379 17.5886243 51.5953939 13.8029101 48.9026702 12.2513228zM42.5 33C46.6421356 33 50 29.6421356 50 25.5 50 21.3578644 46.6421356 18 42.5 18 38.3578644 18 35 21.3578644 35 25.5 35.0041342 29.640422 38.359578 32.9958658 42.5 33L42.5 33zM42.5 20.5C45.2614237 20.5 47.5 22.7385763 47.5 25.5 47.5 28.2614237 45.2614237 30.5 42.5 30.5 39.7385763 30.5 37.5 28.2614237 37.5 25.5 37.5 22.7385763 39.7385763 20.5 42.5 20.5z"/>
  <circle cx="42" cy="26" r="3"/>
  <rect width="3" height="3" x="32" y="33"/>
  <path d="M46.7254514,35.170107 C44.1210247,35.9034435 41.3844755,35.9125233 38.7758424,35.1964836 L38,37.702258 C41.0508608,38.5900401 44.2670152,38.5995947 47.322443,37.7299534 C47.9336281,37.5056345 48.6108117,37.7119062 49.0196752,38.2469343 C49.6325051,39.2027683 49.7031533,40.4417972 49.2034598,41.4701515 C48.3893804,43.3072798 46.2468713,44.3623427 43.3235861,44.3623427 L43.3235861,47 C47.2398016,47 50.1951566,45.3949855 51.4335441,42.5964312 C52.3424051,40.6475697 52.1462792,38.3173884 50.9265946,36.5733407 C49.9180308,35.2440889 48.2623387,34.6910673 46.7254514,35.170107 Z"/>
  <path d="M22,42.6259217 L23.2572038,45 C23.3395811,44.9494004 31.5937834,39.9755969 39.7427962,45 L41,42.6259217 C31.6127935,36.838422 22.3928762,42.3879668 22,42.6259217 Z"/>
  <path d="M27,46.4107664 L28.1056892,49 C30.8995454,47.5252539 34.1004546,47.5252539 36.8943108,49 L38,46.4107664 C34.5096978,44.5297445 30.4903022,44.5297445 27,46.4107664 Z"/>
</svg>
