<svg xmlns="http://www.w3.org/2000/svg" width="60" height="77" viewBox="0 0 60 77">
  <path d="M36.7976887,3.93713963 L23.5768377,3.93713963 C21.3863354,3.93713963 19.6105824,5.67555417 19.6105824,7.81999717 L19.6105824,11.7028547 L18.0373012,11.7028547 C15.998234,11.6973897 14.2892549,13.2106965 14.0908771,15.1974265 L13.0067674,25.8105705 C12.9473985,26.3846137 13.2833329,26.9278047 13.8304264,27.1423906 L19.6105824,29.4048023 L19.6105824,33.7057142 C19.6105824,34.4205285 20.2025001,35 20.9326675,35 L39.4418589,35 C40.1720264,35 40.763944,34.4205285 40.763944,33.7057142 L40.763944,29.4048023 L46.5441001,27.1423906 C47.0938033,26.930006 47.432769,26.3862773 47.3743695,25.8105705 L46.2902597,15.1974265 C46.2295144,14.6370278 46.0445218,14.0963697 45.7482048,13.6132206 L50.3080763,13.1175092 C51.0060509,14.8874395 52.9049335,15.9077674 54.8049095,15.5337955 C56.7048856,15.1598236 58.0533941,13.5003124 57.998376,11.603829 C57.9433579,9.70734566 56.5008138,8.12543532 54.5822195,7.85763274 C52.6636251,7.58983017 50.8269563,8.71401911 50.2327175,10.5198775 L40.7705544,11.5553061 L40.7705544,10.0112231 L48.9489729,7.00847995 C49.6327817,7.53010856 50.4737434,7.8154573 51.3406248,7.81999717 C53.0406728,7.83149522 54.5618316,6.78818709 55.1314121,5.22003241 C55.7009926,3.65187774 55.1941435,1.90261393 53.8683244,0.860798462 C52.5425052,-0.18101701 50.6883337,-0.287019595 49.2476564,0.596635866 C47.8069791,1.48029133 47.0955904,3.15990875 47.474848,4.78230829 L40.7070944,7.26733712 C40.4272582,5.36209308 38.7638532,3.94513417 36.7976887,3.93713963 Z M38.1197738,18.346424 L30.1872632,19.455627 L22.2547526,18.346424 L22.2547526,14.2914264 L38.1197738,14.2914264 L38.1197738,18.346424 Z M38.1197738,7.81999717 L38.1197738,11.7028547 L34.3914938,11.7028547 L35.2733246,6.52571133 L36.7976887,6.52571133 C37.5278562,6.52571133 38.1197738,7.10518284 38.1197738,7.81999717 Z M32.592136,6.52571133 L31.7116273,11.7028547 L28.6628991,11.7028547 L27.7823904,6.52571133 L32.592136,6.52571133 Z M22.2547526,7.81999717 C22.2547526,7.10518284 22.8466703,6.52571133 23.5768377,6.52571133 L25.1012018,6.52571133 L25.9830326,11.7028547 L22.2547526,11.7028547 L22.2547526,7.81999717 Z M15.7368731,25.1000075 L16.7218265,15.4562837 C16.7897242,14.7949152 17.3583241,14.2914264 18.0373012,14.2914264 L19.6105824,14.2914264 L19.6105824,26.6169106 L15.7368731,25.1000075 Z M38.1197738,32.4114283 L22.2547526,32.4114283 L22.2547526,20.9608814 L29.9995271,22.0441987 C30.1240636,22.0614592 30.2504629,22.0614592 30.3749993,22.0441987 L38.1197738,20.9608814 L38.1197738,32.4114283 Z M40.763944,26.6169106 L40.763944,14.2914099 L42.3372253,14.2914099 C43.0187312,14.288083 43.5911675,14.7924428 43.6593104,15.4562837 L44.6442638,25.1000075 L40.763944,26.6169106 Z M53.984795,10.4085689 C54.7149624,10.4085689 55.3068801,10.9880404 55.3068801,11.7028547 C55.3068801,12.4176691 54.7149624,12.9971406 53.984795,12.9971406 C53.2546276,12.9971406 52.6627099,12.4176691 52.6627099,11.7028547 C52.6627099,10.9880404 53.2546276,10.4085689 53.984795,10.4085689 Z M51.3406248,2.64285378 C52.0707922,2.64285378 52.6627099,3.22232529 52.6627099,3.93713963 C52.6627099,4.65195396 52.0707922,5.23142548 51.3406248,5.23142548 C50.6104574,5.23142548 50.0185397,4.65195396 50.0185397,3.93713963 C50.0185397,3.22232529 50.6104574,2.64285378 51.3406248,2.64285378 Z"/>
  <rect width="4" height="3" x="25" y="24"/>
  <rect width="4" height="3" x="31" y="24"/>
  <rect width="3" height="3" x="20" y="69"/>
  <rect width="3" height="3" x="26" y="67"/>
  <path d="M0,37 L0,55.0645161 L3.91304348,55.0645161 C4.37768667,55.0617739 4.841841,55.0342069 5.30347826,54.9819355 L5.30347826,54.9819355 C5.83667355,54.9213847 6.36614953,54.832221 6.88956522,54.7148387 L7.82608696,54.4890323 C10.8382146,53.650251 13.5505217,51.9889386 15.6521739,49.6954839 L15.6521739,75.7096774 C15.6521739,76.4223029 16.2361503,77 16.9565217,77 L43.0434783,77 C43.7638497,77 44.3478261,76.4223029 44.3478261,75.7096774 L44.3478261,50.7341935 C46.5711879,53.4711899 49.9288634,55.0636462 53.4782609,55.0645161 L60,55.0645161 L60,37 L0,37 Z M2.60869565,52.483871 L2.60869565,39.5806452 L5.2173913,39.5806452 L5.2173913,52.3896774 L5.16652174,52.396129 C4.75103904,52.4520238 4.33234265,52.481332 3.91304348,52.483871 L2.60869565,52.483871 Z M18.2608696,42.7212903 L23.7104348,51.1935484 L18.2608696,51.1935484 L18.2608696,42.7212903 Z M30,43.996129 L27.1591304,39.5806452 L32.8408696,39.5806452 L30,43.996129 Z M41.7391304,53.7741935 L41.7391304,56.3548387 L39.1304348,56.3548387 L39.1304348,58.9354839 L41.7391304,58.9354839 L41.7391304,61.516129 L18.2608696,61.516129 L18.2608696,58.9354839 L27.3913043,58.9354839 L27.3913043,56.3548387 L18.2608696,56.3548387 L18.2608696,53.7741935 L41.7391304,53.7741935 Z M18.2608696,74.4193548 L18.2608696,64.0967742 L41.7391304,64.0967742 L41.7391304,74.4193548 L18.2608696,74.4193548 Z M41.7391304,51.1935484 L36.2895652,51.1935484 L41.7391304,42.7212903 L41.7391304,51.1935484 Z M57.3913043,39.5806452 L57.3913043,52.483871 L56.0869565,52.483871 C55.6506347,52.4822909 55.214898,52.4521173 54.7826087,52.3935484 L54.7826087,39.5806452 L57.3913043,39.5806452 Z M52.173913,52.3806452 C47.6857478,51.7398032 44.3531407,47.9375254 44.3478261,43.4516129 L44.3478261,39.5806452 L52.173913,39.5806452 L52.173913,52.3806452 Z M40.6669565,39.5806452 L33.1969565,51.1935484 L28.4634783,51.1935484 L35.9334783,39.5806452 L40.6669565,39.5806452 Z M24.0665217,39.5806452 L28.4543478,46.4 L26.0869565,50.08 L19.3330435,39.5806452 L24.0665217,39.5806452 Z M15.6521739,39.5806452 L15.6521739,43.4516129 C15.6521739,47.0645161 11.8956522,50.3767742 7.82608696,51.7767742 L7.82608696,39.5806452 L15.6521739,39.5806452 Z"/>
  <rect width="5" height="3" x="30" y="56"/>
</svg>
