<svg xmlns="http://www.w3.org/2000/svg" width="77" height="77" viewBox="0 0 77 77">
  <polygon points="33 50.387 33.49 53 39.5 51.72 45.51 53 46 50.387 39.5 49"/>
  <polygon points="33 55.387 33.49 58 39.5 56.72 45.51 58 46 55.387 39.5 54"/>
  <path d="M75.2395952,0.0921241077 L55.8104335,7.86388895 L55.5306741,7.70090775 L49.1963054,7.70090775 L48.7663999,1.19962626 C48.7217229,0.52414562 48.1600461,0 47.4830999,0.00100863482 L29.5169001,0.00100863482 C28.8399539,0 28.2782771,0.52414562 28.2336001,1.19962626 L27.8036946,7.70090775 L21.4693259,7.70090775 L21.1895665,7.86388895 L1.76040475,0.0921241077 C1.17938471,-0.140539312 0.515275763,0.0798684871 0.188658306,0.613763183 C-0.137959152,1.14765788 -0.0318067906,1.83929582 0.439889068,2.25066249 L12.5183085,12.8200574 L11.5507003,13.3731668 L11.5507003,26.1575659 L1.28430046,31.290832 L1.28430046,69.3001007 L11.5507003,69.3001007 L11.5507003,75.7166833 C11.5507003,76.4254394 12.1252533,77 12.8340003,77 C12.9719135,77 13.1089054,76.9775294 13.2395231,76.9332674 L20.8944075,74.3820341 L25.9775588,73.1115508 C26.5490484,72.9690117 26.9501374,72.4557381 26.9503001,71.8667337 L26.9503001,67.8473864 L32.241346,71.3752235 L33.6478428,77 L43.3521572,77 L44.7637872,71.3752235 L50.0496999,67.8473864 L50.0496999,71.8667337 C50.0498626,72.4557381 50.4509516,72.9690117 51.0224412,73.1115508 L56.1055925,74.3820341 L63.7604769,76.9332674 C63.8910946,76.9775294 64.0280865,77 64.1659997,77 C64.8747467,77 65.4492997,76.4254394 65.4492997,75.7166833 L65.4492997,69.3001007 L75.7156995,69.3001007 L75.7156995,31.290832 L65.4492997,26.1575659 L65.4492997,13.3731668 L64.4816915,12.8200574 L76.5601109,2.25066249 C77.0318068,1.83929582 77.1379592,1.14765788 76.8113417,0.613763183 C76.4847242,0.0798684871 75.8206153,-0.140539312 75.2395952,0.0921241077 Z M41.0666,5.13427471 C41.0666,6.551787 39.917494,7.70090775 38.5,7.70090775 C37.082506,7.70090775 35.9334,6.551787 35.9334,5.13427471 C35.9334,3.71676243 37.082506,2.56764167 38.5,2.56764167 C39.917494,2.56764167 41.0666,3.71676243 41.0666,5.13427471 Z M34.0803149,2.56764167 C33.6184243,3.34449289 33.3721189,4.23049491 33.3668001,5.13427471 C33.3668001,7.96929929 35.665012,10.2675408 38.5,10.2675408 C41.334988,10.2675408 43.6331999,7.96929929 43.6331999,5.13427471 C43.6278811,4.23049491 43.3815757,3.34449289 42.9196851,2.56764167 L46.2819311,2.56764167 L46.8722491,11.4392088 L43.385523,12.8341738 L33.614477,12.8341738 L30.1277509,11.4392088 L30.7180689,2.56764167 L34.0803149,2.56764167 Z M42.4615471,15.4008069 L42.8555201,19.7384167 L38.5,21.6890578 L34.1444799,19.7384167 L34.5384529,15.4008069 L42.4615471,15.4008069 Z M33.8993696,22.4410813 L37.9751303,24.2710907 C38.3090409,24.4207521 38.6909591,24.4207521 39.0248697,24.2710907 L43.1006304,22.4410813 L43.5510687,27.398533 L38.5,29.4184732 L33.4489313,27.398533 L33.8993696,22.4410813 Z M32.0013689,14.9529294 L31.0337607,25.6044565 L7.78293158,5.26260637 L32.0013689,14.9529294 Z M14.1173003,14.8618139 L14.5626054,14.6051506 L19.8677675,19.2507564 L14.1173003,19.2507564 L14.1173003,14.8618139 Z M3.85090043,66.7334677 L3.85090043,32.8770112 L11.5507003,29.0270617 L11.5507003,35.9338712 L6.41750039,35.9338712 L6.41750039,43.6337703 L11.5507003,43.6337703 L11.5507003,46.2004033 L6.41750039,46.2004033 L6.41750039,53.9003025 L11.5507003,53.9003025 L11.5507003,56.4669355 L6.41750039,56.4669355 L6.41750039,64.1668346 L11.5507003,64.1668346 L11.5507003,66.7334677 L3.85090043,66.7334677 Z M19.6662894,42.2028724 L26.9503001,43.6594366 L34.2343109,42.2028724 L36.7264794,37.2171877 L40.2735206,37.2171877 L42.7656891,42.2028724 L50.0496999,43.6594366 L57.3337106,42.2028724 L59.8258791,37.2171877 L62.8826997,37.2171877 L62.8826997,43.8493675 L56.2326392,45.0813513 L56.1877237,45.0903346 L51.3111837,46.1721704 L38.5,43.608104 L25.6823998,46.174737 L20.8058598,45.0929012 L20.7609443,45.083918 L14.1173003,43.8493675 L14.1173003,37.2171877 L17.1741209,37.2171877 L19.6662894,42.2028724 Z M20.0435796,37.2171877 L33.8570207,37.2171877 L32.4992893,39.9314021 L26.9503001,41.0414709 L21.401311,39.9314021 L20.0435796,37.2171877 Z M43.1429793,37.2171877 L56.9564204,37.2171877 L55.598689,39.9314021 L50.0496999,41.0414709 L44.5007107,39.9314021 L43.1429793,37.2171877 Z M65.4492997,38.5005042 L68.0158996,38.5005042 L68.0158996,41.0671373 L65.4492997,41.0671373 L65.4492997,38.5005042 Z M65.4492997,48.7670364 L68.0158996,48.7670364 L68.0158996,51.3336694 L65.4492997,51.3336694 L65.4492997,48.7670364 Z M11.5507003,41.0671373 L8.98410036,41.0671373 L8.98410036,38.5005042 L11.5507003,38.5005042 L11.5507003,41.0671373 Z M11.5507003,51.3336694 L8.98410036,51.3336694 L8.98410036,48.7670364 L11.5507003,48.7670364 L11.5507003,51.3336694 Z M11.5507003,61.6002016 L8.98410036,61.6002016 L8.98410036,59.0335685 L11.5507003,59.0335685 L11.5507003,61.6002016 Z M14.1173003,46.4814497 L19.2505002,47.5081029 L19.2505002,72.2247791 L14.1173003,73.93544 L14.1173003,46.4814497 Z M24.3837002,70.8644635 L21.8171002,71.5061218 L21.8171002,48.0214295 L24.3837002,48.5347561 L24.3837002,70.8644635 Z M35.6523573,74.4333668 L34.6731994,70.5154014 L35.8076366,62.5665389 L38.5025666,61.6682174 L41.1974966,62.5665389 L42.3319338,70.5154014 L41.3476427,74.4333668 L35.6523573,74.4333668 Z M44.6162077,68.3863793 L43.5048699,60.6338642 L38.5,58.9655528 L33.4951301,60.6338642 L32.3863589,68.3863793 L26.9503001,64.7635768 L26.9503001,48.5360394 L38.5,46.2260697 L50.0496999,48.5360394 L50.0496999,64.7635768 L44.6162077,68.3863793 Z M52.6162998,48.5360394 L55.1828998,48.0227128 L55.1828998,71.5074051 L52.6162998,70.8657469 L52.6162998,48.5360394 Z M62.8826997,73.93544 L57.7494998,72.2247791 L57.7494998,47.5081029 L62.8826997,46.4814497 L62.8826997,73.93544 Z M65.4492997,59.0335685 L68.0158996,59.0335685 L68.0158996,61.6002016 L65.4492997,61.6002016 L65.4492997,59.0335685 Z M73.1490996,32.8770112 L73.1490996,66.7334677 L65.4492997,66.7334677 L65.4492997,64.1668346 L70.5824996,64.1668346 L70.5824996,56.4669355 L65.4492997,56.4669355 L65.4492997,53.9003025 L70.5824996,53.9003025 L70.5824996,46.2004033 L65.4492997,46.2004033 L65.4492997,43.6337703 L70.5824996,43.6337703 L70.5824996,35.9338712 L65.4492997,35.9338712 L65.4492997,29.0270617 L73.1490996,32.8770112 Z M62.8826997,34.6505547 L14.1173003,34.6505547 L14.1173003,21.8173895 L22.8013913,21.8173895 L31.2390887,29.2003094 L31.2455052,29.2003094 C31.3527704,29.2941683 31.4751226,29.3692293 31.6073958,29.4223232 L38.0238957,31.9889562 C38.3295534,32.1110717 38.6704466,32.1110717 38.9761043,31.9889562 L45.3926042,29.4223232 C45.5248774,29.3692293 45.6472296,29.2941683 45.7544948,29.2003094 L45.7609113,29.2003094 L54.1986087,21.8173895 L62.8826997,21.8173895 L62.8826997,34.6505547 Z M62.8826997,14.8618139 L62.8826997,19.2507564 L57.1322325,19.2507564 L62.4373946,14.6077173 L62.8826997,14.8618139 Z M45.9662393,25.6095898 L44.9986311,14.9580627 L69.2170684,5.26260637 L45.9662393,25.6095898 Z"/>
  <path d="M20 24C17.790861 24 16 25.790861 16 28 16 30.209139 17.790861 32 20 32 22.209139 32 24 30.209139 24 28 24 25.790861 22.209139 24 20 24zM20 29.3333333C19.2636203 29.3333333 18.6666667 28.7363797 18.6666667 28 18.6666667 27.2636203 19.2636203 26.6666667 20 26.6666667 20.7363797 26.6666667 21.3333333 27.2636203 21.3333333 28 21.3333333 28.7363797 20.7363797 29.3333333 20 29.3333333zM57 24C54.790861 24 53 25.790861 53 28 53 30.209139 54.790861 32 57 32 59.209139 32 61 30.209139 61 28 61 25.790861 59.209139 24 57 24zM57 29.3333333C56.2636203 29.3333333 55.6666667 28.7363797 55.6666667 28 55.6666667 27.2636203 56.2636203 26.6666667 57 26.6666667 57.7363797 26.6666667 58.3333333 27.2636203 58.3333333 28 58.3333333 28.7363797 57.7363797 29.3333333 57 29.3333333z"/>
</svg>
