<svg xmlns="http://www.w3.org/2000/svg" width="56" height="77" viewBox="0 0 56 77">
  <rect width="8" height="2" x="20" y="55"/>
  <rect width="8" height="2" x="20" y="64"/>
  <rect width="11" height="2" x="18" y="59"/>
  <path d="M6.8168191,35.9333333 C6.66842519,35.936031 6.52168363,35.9655796 6.38344304,36.0206 C6.3532075,36.03215 6.3267514,36.0488333 6.29777567,36.0616667 C6.16920634,36.1333351 6.04696809,36.2162055 5.93242958,36.30935 L0.893173042,41.4426833 C0.145930559,42.1463004 -0.164294534,43.2095338 0.0843723681,44.2146833 C0.330248933,45.0373547 0.789926176,45.7769909 1.41473609,46.3552833 L5.9437679,50.9688667 C5.73026587,52.3633764 5.61783854,53.7720058 5.60739753,55.1833333 C5.60739753,60.2589167 7.10783616,64.2257 10.0293451,67.0567333 C7.40754381,67.8865924 5.61741799,70.353314 5.60739753,73.15 L5.60739753,75.7166667 C5.60739753,76.4254321 6.17143553,77 6.86721166,77 L42.1420074,77 C42.8377835,77 43.4018215,76.4254321 43.4018215,75.7166667 L43.4018215,73.15 C43.3918011,70.353314 41.6016753,67.8865924 38.9798739,67.0567333 C41.9013829,64.2257 43.4018215,60.2589167 43.4018215,55.1833333 C43.3614889,52.1343492 42.8831458,49.1078076 41.982011,46.2 L49.7008922,46.2 C53.1780462,46.1957572 55.9957978,43.3254015 55.9999815,39.7833333 L55.9999815,29.5166667 C56.0065682,26.7401906 54.2550221,24.2760607 51.6634915,23.4159832 C49.071961,22.5559057 46.2316257,23.4960814 44.6314001,25.7436667 L45.1353258,24.47445 L42.7605761,23.5068167 C43.1503802,22.2190153 43.3623819,20.8822257 43.3904832,19.5349 L44.9135985,19.2243333 L44.4096728,16.709 L43.1964718,16.9554 C43.0811958,16.2158833 42.9101956,15.4865055 42.6849873,14.7737333 C47.9623487,9.80338333 45.9756218,1.34365 45.8836554,0.971483333 C45.7432376,0.400488471 45.2394864,0 44.6616357,0 C40.5062731,0.130922224 36.5267954,1.7385377 33.4127553,4.54428333 C27.7560656,1.90738935 21.2531535,1.90738935 15.5964638,4.54428333 C12.4824237,1.7385377 8.50294596,0.130922224 4.3475834,0 C3.76973262,0 3.26598142,0.400488471 3.12556369,0.971483333 C3.03359725,1.34365 1.04687037,9.80338333 6.31919251,14.7711667 C6.09398419,15.4839388 5.92298398,16.2133166 5.80770798,16.9528333 L4.59954622,16.709 L4.09562057,19.2243333 L5.61873586,19.5349 C5.64683715,20.8822257 5.85883889,22.2190153 6.24864292,23.5068167 L3.87389328,24.47445 L4.80867537,26.8588833 L7.17460631,25.8951 C8.76501767,29.0032165 11.2269031,31.5593073 14.2472029,33.2383333 C13.4379671,34.0814021 12.6885887,34.9820053 12.0047337,35.9333333 L6.8168191,35.9333333 Z M9.86430949,38.5 L10.3178426,38.5 C10.2598911,38.5975333 10.2120182,38.6989167 10.1553266,38.7977333 L9.86430949,38.5 Z M2.52841179,43.5832833 C2.50951458,43.5114167 2.49187718,43.4434 2.67455023,43.2573167 L6.81933873,39.03515 L12.2252012,44.54065 L12.2252012,44.54065 L14.7448294,47.1073167 C15.4351441,47.8170412 15.7656266,48.8113726 15.6405573,49.8023167 C15.4692554,49.9642216 15.3131984,50.1420967 15.1744261,50.3336167 L11.4869501,46.5773 L9.70557291,48.3919333 L13.6550902,52.4151833 C12.4746656,52.8733111 11.1408321,52.5991673 10.227136,51.7106333 L3.18981421,44.5419333 C2.8930062,44.2847842 2.66538403,43.954864 2.52841179,43.5832833 Z M18.2055389,51.3333333 L30.8036802,51.3333333 C31.4994563,51.3333333 32.0634943,51.9079012 32.0634943,52.6166667 L32.0634943,66.7333333 C30.1442833,66.739777 28.3337608,67.6416035 27.1502192,69.18065 C25.3895473,69.3305137 23.6196718,69.3305137 21.8589999,69.18065 C20.6754582,67.6416035 18.8649358,66.739777 16.9457247,66.7333333 L16.9457247,53.0080833 C17.3261464,52.5273948 17.6281624,51.9874832 17.8401928,51.40905 C17.957467,51.364963 18.0806768,51.3394282 18.2055389,51.3333333 L18.2055389,51.3333333 Z M23.1087355,71.8333 C23.5647882,71.8499833 25.4444309,71.8499833 25.9004836,71.8333 C25.8108778,72.2662782 25.765284,72.7075058 25.7644237,73.15 L25.7644237,74.4333333 L23.2447954,74.4333333 L23.2447954,73.15 C23.2439351,72.7075058 23.1983412,72.2662782 23.1087355,71.8333 Z M8.1270258,55.1833333 C8.1270258,54.5622 8.16230059,53.9231 8.21143334,53.2788667 L8.45205784,53.5239833 C10.0097974,55.1313812 12.3487688,55.6574507 14.4260965,54.8676333 L14.4260965,66.7333333 L13.7231202,66.7333333 C10.016747,64.4079333 8.1270258,60.5309833 8.1270258,55.1833333 Z M18.2055389,74.4333333 L18.2055389,71.8666667 L15.6859106,71.8666667 L15.6859106,74.4333333 L13.1662823,74.4333333 L13.1662823,71.8666667 L10.6466541,71.8666667 L10.6466541,74.4333333 L8.1270258,74.4333333 L8.1270258,73.15 C8.1270258,71.0237037 9.8191398,69.3 11.9064682,69.3 L16.9457247,69.3 C19.0330531,69.3 20.7251671,71.0237037 20.7251671,73.15 L20.7251671,74.4333333 L18.2055389,74.4333333 Z M40.8821933,73.15 L40.8821933,74.4333333 L38.362565,74.4333333 L38.362565,71.8666667 L35.8429367,71.8666667 L35.8429367,74.4333333 L33.3233085,74.4333333 L33.3233085,71.8666667 L30.8036802,71.8666667 L30.8036802,74.4333333 L28.2840519,74.4333333 L28.2840519,73.15 C28.2840519,71.0237037 29.9761659,69.3 32.0634943,69.3 L37.1027509,69.3 C39.1900793,69.3 40.8821933,71.0237037 40.8821933,73.15 L40.8821933,73.15 Z M35.2860989,66.7333333 L34.5831226,66.7333333 L34.5831226,52.6166667 C34.5831226,50.4903704 32.8910086,48.7666667 30.8036802,48.7666667 L18.2055389,48.7666667 C18.184122,48.7666667 18.163965,48.7730833 18.1425482,48.7730833 C18.0134692,47.4592199 17.4450411,46.2304591 16.5325057,45.2926833 L12.0085131,40.6816667 C12.4217322,39.9116667 12.8714858,39.1609167 13.3640731,38.4255667 C15.7734233,39.6533441 18.3667868,40.46353 21.037601,40.8228333 C20.3470469,42.4362982 20.8185924,44.3213736 22.1829256,45.4014435 C23.5472587,46.4815134 25.4569211,46.4815134 26.8212542,45.4014435 C28.1855874,44.3213736 28.6571329,42.4362982 27.9665788,40.8228333 C30.637393,40.46353 33.2307565,39.6533441 35.6401067,38.4255667 C37.0638527,40.5807729 38.2175477,42.9088209 39.07436,45.3555667 C40.2209811,48.5029947 40.8323539,51.8265472 40.8821933,55.1833333 C40.8821933,60.5309833 38.9924721,64.4079333 35.2860989,66.7333333 Z M25.7644237,42.35 C25.7644237,43.0587654 25.2003857,43.6333333 24.5046095,43.6333333 C23.8088334,43.6333333 23.2447954,43.0587654 23.2447954,42.35 C23.2447954,41.6412346 23.8088334,41.0666667 24.5046095,41.0666667 C25.2003857,41.0666667 25.7644237,41.6412346 25.7644237,42.35 Z M43.4018215,43.6333333 L41.1202981,43.6333333 C40.4490546,41.8566785 39.6345309,40.1397 38.6850774,38.5 L43.4018215,38.5 L43.4018215,43.6333333 Z M45.9214498,29.5166667 C45.9280656,27.8909587 46.936418,26.4446933 48.4410781,25.9028 L48.4410781,29.5166667 L50.9607063,29.5166667 L50.9607063,25.9028 C52.4653664,26.4446933 53.4737188,27.8909587 53.4803346,29.5166667 L53.4803346,39.7833333 C53.4803346,41.9096296 51.7882206,43.6333333 49.7008922,43.6333333 L45.9214498,43.6333333 L45.9214498,29.5166667 Z M44.0216501,26.7883 C43.6181303,27.6393761 43.406363,28.5715351 43.4018215,29.5166667 L43.4018215,35.9333333 L37.0044854,35.9333333 C36.32014,34.9823993 35.5707901,34.0818304 34.7620162,33.2383333 C37.7805294,31.5572703 40.2401852,28.9998778 41.8283137,25.89125 L44.0216501,26.7883 Z M43.6235488,2.61158333 C43.9133061,4.61101667 44.1967643,9.12706667 41.6204443,12.22375 C41.0854765,11.2174745 40.4482991,10.271179 39.7193848,9.40041667 C39.9662632,9.53177437 40.1936124,9.69812417 40.3946452,9.8945 L42.1760224,8.07858333 C40.6188921,6.48981667 38.0765872,6.13176667 36.0948996,6.10225 C35.9928546,6.03295 35.8895499,5.96621667 35.7862451,5.8982 C38.0421553,4.07171439 40.7591329,2.93233479 43.6235488,2.61158333 Z M5.38818987,2.61158333 C8.25172179,2.93487022 10.9672592,4.07597478 13.2217142,5.90333333 C13.1196692,5.97135 13.0163644,6.03166667 12.9155793,6.10481667 C10.9326319,6.12406667 8.39158676,6.48981667 6.83319668,8.07986667 L8.61457387,9.89578333 C8.81626234,9.69743678 9.0449597,9.52973521 9.29361368,9.39785 C8.56332497,10.268103 7.92526283,11.2144582 7.39003453,12.2211833 C4.82883239,9.13348333 5.10347188,4.62 5.38818987,2.61158333 Z M9.52793911,24.9415833 L11.1140451,24.2999167 L10.179263,21.9154833 L8.59819628,22.55715 C8.37100654,21.7422369 8.22911718,20.9051195 8.17489873,20.0597833 L10.3997305,20.5128 L10.8935776,17.9974667 L8.27442405,17.4533333 C9.30117257,10.5233333 16.1797577,5.13333333 24.5046095,5.13333333 C32.8294613,5.13333333 39.7080465,10.5233333 40.734795,17.4533333 L38.1106022,17.9923333 L38.6044493,20.5076667 L40.8292811,20.05465 C40.7750626,20.8999862 40.6331733,21.7371036 40.4059835,22.5520167 L38.8249168,21.91035 L37.8901347,24.2947833 L39.4762407,24.93645 C36.9377152,29.9016667 31.1816244,33.3666667 24.5046095,33.3666667 C17.8275946,33.3666667 12.0715038,29.9016667 9.52793911,24.9377333 L9.52793911,24.9415833 Z M24.5046095,35.9333333 C27.1847494,35.9360818 29.8411186,35.4213658 32.3330946,34.4164333 C32.9678135,35.0186876 33.564082,35.6616659 34.1182512,36.3414333 C28.0208887,39.2211646 20.9883304,39.2211646 14.8909679,36.3414333 C15.445119,35.6616496 16.0413886,35.0186702 16.6761245,34.4164333 C19.1681005,35.4213658 21.8244697,35.9360818 24.5046095,35.9333333 Z"/>
  <rect width="2" height="2" x="49" y="32"/>
  <path d="M28.9467095 26.9518424C29.1931715 26.983871 29.4412489 27 29.6895601 27 32.1336959 26.8176746 34.4067528 25.6053367 36 23.6343184L34.2136212 21.7427946C32.4360859 23.6249544 30.7722522 24.4864405 29.2751809 24.2991609 28.2251016 24.1153681 27.2713858 23.5409531 26.5855059 22.6791925L29.800735 18.1403381C30.0878484 17.7349879 30.1340314 17.1926638 29.9200298 16.7394686 29.7060281 16.2862734 29.2685762 16 28.790054 16L21.209946 16C20.7314238 16 20.2939719 16.2862734 20.0799702 16.7394686 19.8659686 17.1926638 19.9121516 17.7349879 20.199265 18.1403381L23.4144941 22.6791925C22.7278076 23.5389645 21.77419 24.1114232 20.7248191 24.29381 19.2277478 24.4810896 17.5664408 23.6249544 15.7863788 21.7374438L14 23.6289675C15.5947527 25.6015777 17.8703789 26.8140723 20.3167566 26.9946492 20.5650678 26.9946025 20.8131452 26.9785201 21.0596072 26.9464915 22.5654068 26.7142163 23.9534619 25.951772 25 24.7820747 26.0474391 25.9550669 27.4380024 26.7195516 28.9467095 26.9518424L28.9467095 26.9518424zM26.2633513 18.6754226L25 20.4585918 23.7366487 18.6754226 26.2633513 18.6754226zM33.4388186 14L35 12.1523115C31.9507125 10.6158962 28.0492875 10.6158962 25 12.1523115L26.5611814 14C28.666291 12.9649516 31.333709 12.9649516 33.4388186 14L33.4388186 14zM22.4444444 14L24 12.1506515C20.9504068 10.6164495 17.0495932 10.6164495 14 12.1506515L15.5611814 13.9966718C17.6670138 12.957756 20.3402284 12.9590486 22.4444444 14L22.4444444 14z"/>
</svg>
