<svg xmlns="http://www.w3.org/2000/svg" width="77" height="77" viewBox="0 0 77 77">
  <path d="M21.3653026,32.0926345 C20.6652753,32.1376627 19.9795937,31.8817968 19.483557,31.3904508 C18.9875204,30.8991048 18.7292119,30.2199071 18.77467,29.5264993 L16.1840374,29.5264993 C16.1383445,30.8438287 16.6261905,32.124588 17.5389873,33.0836971 C18.4517841,34.0428063 19.7137774,34.6006675 21.0440642,34.6331083 C21.0881049,34.6331083 21.1269644,34.6587697 21.1735958,34.6587697 L26.5465679,34.6587697 L26.5465679,38.5079724 C26.5465679,38.7171124 26.4869833,43.6402428 21.3653026,43.6402428 C20.6652753,43.685271 19.9795937,43.4294051 19.483557,42.9380591 C18.9875204,42.446713 18.7292119,41.7675153 18.77467,41.0741076 L16.1840374,41.0741076 C16.1383445,42.391437 16.6261905,43.6721962 17.5389873,44.6313054 C18.4517841,45.5904146 19.7137774,46.1482758 21.0440642,46.1807166 C21.0881049,46.1807166 21.1269644,46.2063779 21.1735958,46.2063779 L26.5465679,46.2063779 L26.5465679,48.7725131 L23.9559352,48.7725131 C23.2405518,48.7725131 22.6606189,49.346962 22.6606189,50.0555807 C22.6606189,50.3121942 22.5867859,56.4709186 16.1840374,56.4709186 C15.48401,56.5159468 14.7983284,56.260081 14.3022918,55.7687349 C13.8062552,55.2773889 13.5479467,54.5981912 13.5934047,53.9047835 L11.0027721,53.9047835 C10.9581127,55.2327854 11.4546031,56.5227644 12.3804524,57.4842654 C13.3063018,58.4457664 14.5836817,58.9979643 15.9249741,59.0165247 C15.9625383,59.0165247 15.9936259,59.0370538 16.03119,59.0370538 L22.6606189,59.0370538 L22.6606189,77 L56.3388431,77 L56.3388431,59.0370538 L63.091327,59.0370538 C63.1539189,59.0292321 63.2158342,59.0167945 63.2765573,58.9998448 C65.9919604,58.8661462 68.0949899,56.5960693 67.9966899,53.9047835 L65.4060573,53.9047835 C65.451083,54.5980782 65.1926349,55.2770208 64.6966985,55.7682676 C64.200762,56.2595144 63.5153379,56.5155185 62.8154247,56.4709186 C57.5331247,56.4709186 56.371226,50.1120357 56.3245946,49.8438745 C56.219949,49.2242521 55.6777547,48.7708132 55.0435268,48.7725131 L52.4528942,48.7725131 L52.4528942,46.2063779 L57.9709417,46.2063779 C58.0477745,46.1986024 58.1236803,46.1835648 58.197622,46.1614706 C60.8711884,45.9790063 62.9155002,43.7268192 62.8154247,41.0741076 L60.224792,41.0741076 C60.2698177,41.7674024 60.0113696,42.446345 59.5154332,42.9375917 C59.0194968,43.4288385 58.3340727,43.6848427 57.6341594,43.6402428 C56.2438933,43.6946408 54.8938687,43.1714104 53.9100354,42.1968805 C52.9262022,41.2223505 52.3979768,39.8850919 52.4528942,38.5079724 L52.4528942,34.6587697 L57.9709417,34.6587697 C58.0477745,34.6509941 58.1236803,34.6359565 58.197622,34.6138623 C60.8711884,34.431398 62.9155002,32.1792109 62.8154247,29.5264993 L60.224792,29.5264993 C60.2698177,30.2197941 60.0113696,30.8987367 59.5154332,31.3899835 C59.0194968,31.8812302 58.3340727,32.1372344 57.6341594,32.0926345 C56.2438933,32.1470325 54.8938687,31.6238022 53.9100354,30.6492722 C52.9262022,29.6747422 52.3979768,28.3374836 52.4528942,26.9603641 C52.4528942,26.2517455 51.8729613,25.6772966 51.1575778,25.6772966 L45.9763126,25.6772966 L45.9763126,21.8280938 C45.9763126,21.1194751 45.3963797,20.5450262 44.6809963,20.5450262 L40.7950473,20.5450262 L40.7950473,17.978891 L43.38568,17.978891 L43.38568,15.4127559 L40.7950473,15.4127559 L40.7950473,12.8466207 L43.38568,12.8466207 L43.38568,10.2804855 L40.7950473,10.2804855 L40.7950473,7.47826592 C42.579406,6.85336543 43.6497588,5.04599803 43.3297167,3.19829496 C43.0096746,1.35059188 41.3923292,0 39.499731,0 C37.6071328,0 35.9897874,1.35059188 35.6697453,3.19829496 C35.3497032,5.04599803 36.420056,6.85336543 38.2044147,7.47826592 L38.2044147,10.2804855 L35.6137821,10.2804855 L35.6137821,12.8466207 L38.2044147,12.8466207 L38.2044147,15.4127559 L35.6137821,15.4127559 L35.6137821,17.978891 L38.2044147,17.978891 L38.2044147,20.5450262 L34.3184658,20.5450262 C33.6030823,20.5450262 33.0231494,21.1194751 33.0231494,21.8280938 L33.0231494,25.6772966 L27.8418842,25.6772966 C27.1265007,25.6772966 26.5465679,26.2517455 26.5465679,26.9603641 C26.5465679,27.1695042 26.4869833,32.0926345 21.3653026,32.0926345 Z M39.499731,2.58208001 C40.2151145,2.58208001 40.7950473,3.15652894 40.7950473,3.8651476 C40.7950473,4.57376626 40.2151145,5.14821518 39.499731,5.14821518 C38.7843476,5.14821518 38.2044147,4.57376626 38.2044147,3.8651476 C38.2044147,3.15652894 38.7843476,2.58208001 39.499731,2.58208001 Z M34.2511093,28.2434317 L36.7795668,28.2434317 C36.5088456,29.766433 35.6630041,32.0926345 33.0231494,32.0926345 L32.8443958,32.0926345 C33.6510866,30.9565992 34.1367348,29.6277156 34.2511093,28.2434317 L34.2511093,28.2434317 Z M44.7431715,28.2434317 C44.8575459,29.6277156 45.3431941,30.9565992 46.149885,32.0926345 L45.9763126,32.0926345 C43.357183,32.0926345 42.5022742,29.767716 42.2198953,28.2434317 L44.7431715,28.2434317 L44.7431715,28.2434317 Z M48.7029534,56.3336304 C48.7431082,56.3798208 48.783263,56.4260113 48.8247132,56.4709186 L45.9763126,56.4709186 C45.3001935,56.519501 44.640113,56.2516977 44.192662,55.7472685 C43.3912447,54.4229383 43.061483,52.8705913 43.2561483,51.3386483 L47.1317347,51.3386483 C46.9906649,53.1423268 47.5550664,54.9306898 48.7081347,56.3336304 L48.7029534,56.3336304 Z M43.38568,61.603189 L35.6137821,61.603189 L35.6137821,59.0370538 L43.38568,59.0370538 L43.38568,61.603189 Z M30.2913273,56.3336304 C31.4439319,54.9304997 32.0078635,53.1421561 31.866432,51.3386483 L35.7433137,51.3386483 C35.9337211,52.868387 35.6066393,54.417487 34.8132766,55.7434193 C34.3654202,56.2514873 33.7021945,56.5210191 33.0231494,56.4709186 L30.1734536,56.4709186 C30.2110177,56.4260113 30.2511725,56.3798208 30.2913273,56.3336304 Z M27.3354155,43.6402428 C28.2200479,42.5210761 28.7998532,41.1957165 29.0193267,39.79104 L31.6216172,39.79104 C31.5496441,41.8464874 29.9141631,43.5120279 27.8418842,43.6402428 L27.3354155,43.6402428 Z M34.2511093,39.79104 L36.7795668,39.79104 C36.5088456,41.3140412 35.6630041,43.6402428 33.0231494,43.6402428 L32.8443958,43.6402428 C33.6510866,42.5042075 34.1367348,41.1753239 34.2511093,39.79104 L34.2511093,39.79104 Z M38.2044147,34.6587697 L40.7950473,34.6587697 L40.7950473,37.2249048 L38.2044147,37.2249048 L38.2044147,34.6587697 Z M37.9868016,43.6402428 C38.7453447,42.479043 39.2297214,41.163331 39.4038776,39.79104 L39.5955844,39.79104 C39.7697407,41.163331 40.2541173,42.479043 41.0126605,43.6402428 L37.9868016,43.6402428 Z M41.5851903,56.4709186 L37.4142718,56.4709186 C38.161199,54.8668723 38.479233,53.0995417 38.3378323,51.3386483 L40.6655157,51.3386483 C40.5229018,53.0992088 40.839595,54.8665244 41.5851903,56.4709186 L41.5851903,56.4709186 Z M40.7950473,48.7725131 L38.2044147,48.7725131 L38.2044147,46.2063779 L40.7950473,46.2063779 L40.7950473,48.7725131 Z M42.2198953,39.79104 L44.7431715,39.79104 C44.8575459,41.1753239 45.3431941,42.5042075 46.149885,43.6402428 L45.9763126,43.6402428 C43.357183,43.6402428 42.5022742,41.3153243 42.2198953,39.79104 Z M47.3674823,39.79104 L49.9684775,39.79104 C50.1873894,41.1958772 50.7672539,42.5213722 51.6523887,43.6402428 L51.1575778,43.6402428 C51.0137977,43.6402428 47.9464887,43.5786555 47.3726636,39.79104 L47.3674823,39.79104 Z M49.8622615,37.2249048 L43.38568,37.2249048 L43.38568,34.6587697 L49.8622615,34.6587697 L49.8622615,37.2249048 Z M39.5955844,28.2434317 C39.7697407,29.6157227 40.2541173,30.9314347 41.0126605,32.0926345 L37.9868016,32.0926345 C38.7453447,30.9314347 39.2297214,29.6157227 39.4038776,28.2434317 L39.5955844,28.2434317 Z M35.6137821,34.6587697 L35.6137821,37.2249048 L29.1372005,37.2249048 L29.1372005,34.6587697 L35.6137821,34.6587697 Z M29.1372005,46.2063779 L35.6137821,46.2063779 L35.6137821,48.7725131 L29.1372005,48.7725131 L29.1372005,46.2063779 Z M25.1553982,51.3386483 L29.2563696,51.3386483 C29.3850934,52.524469 29.0514605,53.7141898 28.3237419,54.6643595 C27.1513571,55.7927949 25.5903179,56.438453 23.9559352,56.4709186 L22.7733115,56.4709186 C24.0710267,55.0368347 24.9012963,53.2479964 25.1553982,51.3386483 L25.1553982,51.3386483 Z M25.2512516,59.0370538 L33.0231494,59.0370538 L33.0231494,61.603189 L25.2512516,61.603189 L25.2512516,59.0370538 Z M25.2512516,74.4338648 L25.2512516,64.1693241 L27.8418842,64.1693241 L27.8418842,74.4338648 L25.2512516,74.4338648 Z M30.4325168,74.4338648 L30.4325168,64.1693241 L34.352144,64.1693241 C33.494895,65.2732612 33.0279121,66.6257965 33.0231494,68.0185269 L33.0231494,74.4338648 L30.4325168,74.4338648 Z M35.6137821,74.4338648 L35.6137821,68.0185269 C35.6137821,65.8926709 37.3535807,64.1693241 39.499731,64.1693241 C41.6458814,64.1693241 43.38568,65.8926709 43.38568,68.0185269 L43.38568,74.4338648 L35.6137821,74.4338648 Z M45.9763126,74.4338648 L45.9763126,68.0185269 C45.9715499,66.6257965 45.504567,65.2732612 44.647318,64.1693241 L48.5669452,64.1693241 L48.5669452,74.4338648 L45.9763126,74.4338648 Z M53.7482105,74.4338648 L51.1575778,74.4338648 L51.1575778,64.1693241 L53.7482105,64.1693241 L53.7482105,74.4338648 Z M45.9763126,61.603189 L45.9763126,59.0370538 L53.7482105,59.0370538 L53.7482105,61.603189 L45.9763126,61.603189 Z M56.8323586,56.4709186 L55.0435268,56.4709186 C53.4076845,56.4399345 51.8449029,55.7941303 50.6718342,54.6643595 C49.9454935,53.7136352 49.6132652,52.5239665 49.7430924,51.3386483 L54.0072737,51.3386483 C54.519236,53.2493001 55.4882573,55.0097002 56.8323586,56.4709186 L56.8323586,56.4709186 Z M43.38568,48.7725131 L43.38568,46.2063779 L49.8622615,46.2063779 L49.8622615,48.7725131 L43.38568,48.7725131 Z M51.6640465,32.0926345 L51.1575778,32.0926345 C51.0137977,32.0926345 47.9464887,32.0310472 47.3726636,28.2434317 L49.9736587,28.2434317 C50.1944724,29.6488825 50.7765906,30.9744309 51.6640465,32.0926345 L51.6640465,32.0926345 Z M35.6137821,23.1111614 L43.38568,23.1111614 L43.38568,25.6772966 L35.6137821,25.6772966 L35.6137821,23.1111614 Z M29.0258033,28.2434317 L31.6280938,28.2434317 C31.5558335,30.3011862 29.9167024,31.9675884 27.8418842,32.0926345 L27.3354155,32.0926345 C28.2223689,30.9741338 28.8044275,29.6487209 29.0258033,28.2434317 L29.0258033,28.2434317 Z"/>
  <path d="M1.30063066 23L24.6888104 23C25.4064179 23 25.9881537 22.4527925 25.9881537 21.7777778L25.9881537 20.5555556C26.0863588 19.2327785 25.5703994 17.934871 24.5736136 16.9972483 23.5768278 16.0596256 22.1970235 15.5742904 20.7907804 15.6666667L20.3866846 15.6666667C19.2055816 13.2014444 16.7771089 12 12.9947205 12 9.44751326 12 6.65652381 13.4092222 5.57287149 15.6666667L5.19866061 15.6666667C3.81089789 15.6373056 2.47071227 16.1429494 1.48916766 17.0662355.507623046 17.9895216-.0299263781 19.250162.00128734658 20.5555556L.00128734658 21.7777778C.00128734658 22.1019313.138182053 22.4128083.381856193 22.6420194.625530333 22.8712305.956023389 23 1.30063066 23zM5.19866061 18.1111111L6.49800393 18.1111111C7.10203448 18.1111709 7.62644939 17.7196799 7.76356432 17.1663333 8.26121281 15.157 10.8936824 14.4444444 12.9947205 14.4444444 16.7978984 14.4444444 17.7685079 15.7888889 18.2505642 17.2555556 18.4209504 17.7651927 18.9234823 18.1116777 19.4914371 18.1111111L20.7907804 18.1111111C21.50344 18.0279928 22.2170261 18.2586706 22.7248114 18.7363169 23.2325967 19.2139631 23.4778301 19.8851951 23.389467 20.5555556L2.59997398 20.5555556C2.56740556 19.8983349 2.83072082 19.2586217 3.32530615 18.793392 3.81989147 18.3281622 4.49996999 18.0804758 5.19866061 18.1111111zM71.7907804 7.66666667L71.3866846 7.66666667C70.2055816 5.20144444 67.7771089 4 63.9947205 4 60.4475133 4 57.6565238 5.40922222 56.5728715 7.66666667L56.1986606 7.66666667C54.8108979 7.6373056 53.4707123 8.14294937 52.4891677 9.06623548 51.507623 9.98952159 50.9700736 11.250162 51.0012873 12.5555556L51.0012873 13.7777778C51.0012873 14.4527925 51.5830232 15 52.3006307 15L75.6888104 15C76.4064179 15 76.9881537 14.4527925 76.9881537 13.7777778L76.9881537 12.5555556C77.0863588 11.2327785 76.5703994 9.93487098 75.5736136 8.99724828 74.5768278 8.05962559 73.1970235 7.57429037 71.7907804 7.66666667zM53.599974 12.5555556C53.5674056 11.8983349 53.8307208 11.2586217 54.3253061 10.793392 54.8198915 10.3281622 55.49997 10.0804758 56.1986606 10.1111111L57.4980039 10.1111111C58.1020345 10.1111709 58.6264494 9.71967987 58.7635643 9.16633333 59.2612128 7.157 61.8936824 6.44444444 63.9947205 6.44444444 67.7978984 6.44444444 68.7685079 7.78888889 69.2505642 9.25555556 69.4209504 9.76519267 69.9234823 10.1116777 70.4914371 10.1111111L71.7907804 10.1111111C72.50344 10.0279928 73.2170261 10.2586706 73.7248114 10.7363169 74.2325967 11.2139631 74.4778301 11.8851951 74.389467 12.5555556L53.599974 12.5555556z"/>
  <rect width="3" height="3" x="16" y="74"/>
  <rect width="5" height="3" x="9" y="74"/>
  <rect width="5" height="3" x="58" y="74"/>
</svg>
