<svg xmlns="http://www.w3.org/2000/svg" width="74" height="77" viewBox="0 0 74 77">
  <path d="M73.9215323,25.881216 C70.3957393,15.8878662 62.8546348,7.76145427 53.0660091,3.40697871 C53.0451653,3.39671298 53.021716,3.40697871 53.0008722,3.39158012 L53.0008722,3.38003118 C42.818312,-1.12667706 31.1647524,-1.12667706 20.9821922,3.38003118 C20.9613484,3.38901369 20.948321,3.40826192 20.9274772,3.41852765 L20.9274772,3.40569549 C11.1391394,7.76121469 3.59825112,15.8878575 0.0719540619,25.881216 C-0.0437740769,26.2098232 -0.0191215031,26.5706286 0.140265643,26.8809973 C0.299652788,27.1913661 0.580119398,27.4247081 0.91743064,27.5275815 L34.3209205,37.7394109 L28.345264,42.6438608 C28.0297196,42.9031554 27.8568753,43.2939005 27.8789309,43.6980889 C27.9009865,44.1022772 28.1153563,44.4725214 28.4572994,44.6970057 C30.6539815,46.0798355 33.1182275,46.9983276 35.6940057,47.3943248 L35.6940057,50.2815598 C34.1380802,50.8234034 33.0953721,52.269536 33.0885309,53.8950948 L33.0885309,73.1433281 C33.0858228,73.6320095 33.365142,74.0797856 33.8089447,74.2982221 L39.0198944,76.8646533 C39.4248618,77.063992 39.9058554,77.0419459 40.2902802,76.8064257 C40.6747049,76.5709055 40.9074333,76.1556856 40.9049554,75.7097593 L40.9049554,53.8950948 C40.8981142,52.269536 39.8554061,50.8234034 38.2994806,50.2815598 L38.2994806,47.3943248 C40.8750617,46.9991115 43.3392951,46.081498 45.5361869,44.6995721 C45.87813,44.4750879 46.0924998,44.1048437 46.1145554,43.7006553 C46.136611,43.2964669 45.9637667,42.9057218 45.6482223,42.6464272 L39.6725658,37.7394109 L73.0825694,27.5275815 C73.4198806,27.4247081 73.7003472,27.1913661 73.8597344,26.8809973 C74.0191215,26.5706286 74.0437741,26.2098232 73.9280459,25.881216 L73.9215323,25.881216 Z M53.150687,6.28779763 C56.7541147,8.05053209 60.0341631,10.3923896 62.8560807,13.2171616 L59.8076752,15.8439039 C57.3479299,13.4435712 54.5263328,11.4321281 51.4427983,9.88080119 L53.150687,6.28779763 Z M30.7032187,33.9462257 C31.0018155,33.5463235 31.3385891,33.1754939 31.708932,32.8388107 L31.708932,32.8388107 C32.4121344,32.1997202 33.2286256,31.6934174 34.1176935,31.3451478 L34.1176935,31.3451478 L34.1294181,31.3451478 C35.9696549,30.6223928 38.0212259,30.6223928 39.8614627,31.3451478 L39.8614627,31.3451478 L39.8718846,31.3528471 C40.7607202,31.7008111 41.5768377,32.207156 42.2793433,32.84651 L42.2793433,32.84651 C42.6496862,33.1831932 42.9864599,33.5540228 43.2850566,33.953925 L36.9967432,35.8697659 L30.7032187,33.9462257 Z M39.6647494,28.5823847 C39.2162655,28.4623822 38.7601669,28.3719293 38.2994806,28.3116262 L38.2994806,23.1620822 C39.5250231,23.261233 40.7342229,23.5037567 41.9015495,23.8845326 L39.6647494,28.5823847 Z M35.6940057,28.3141927 C35.2379231,28.3697571 34.7861548,28.4554987 34.3417643,28.5708358 L32.1166888,23.8729836 C33.2763603,23.4973876 34.477205,23.2587501 35.6940057,23.1620822 L35.6940057,28.3141927 Z M26.8692625,26.774334 C27.7442289,26.0397631 28.6993505,25.4032323 29.7170465,24.8764582 L31.9238837,29.5332474 C31.5533389,29.7361204 31.1957227,29.9611022 30.8530335,30.2069356 L26.8692625,26.774334 Z M43.1378473,30.209502 C42.8008109,29.9647691 42.4488445,29.7406405 42.0839327,29.5383803 L44.2920726,24.8944232 C45.3015565,25.4193598 46.2491674,26.0523921 47.1177101,26.7820333 L43.1378473,30.209502 Z M49.09266,25.0766398 C47.9732636,24.0922111 46.7339783,23.2486595 45.4033077,22.565387 L50.3367742,12.1982885 C53.0950732,13.599465 55.6244561,15.4001645 57.8405417,17.5403149 L49.09266,25.0766398 Z M43.0088763,21.5580628 C41.4896901,21.0317676 39.905835,20.7080911 38.2994806,20.5956511 L38.2994806,9.01719712 C41.6249179,9.15962547 44.9003875,9.86680828 47.981425,11.1075553 L43.0088763,21.5580628 Z M35.6940057,20.5956511 C34.0975049,20.7064279 32.5230367,21.025751 31.0119675,21.5452306 L26.0615654,11.088307 C29.1283655,9.85996117 32.3865129,9.15941374 35.6940057,9.01719712 L35.6940057,20.5956511 Z M28.6162334,22.5589709 C27.2757456,23.2444157 26.0275838,24.0923622 24.9008263,25.0830559 L16.1529446,17.5403149 C18.3837568,15.3900787 20.9310262,13.5835282 23.7088216,12.1816067 L28.6162334,22.5589709 Z M23.0782967,26.9219038 C22.0597138,28.1114807 21.204304,29.4277869 20.5340505,30.8369944 L9.08429145,27.3325328 C9.8721244,25.6617023 10.7957309,24.0563087 11.8460948,22.5320234 C12.6153788,21.4367009 13.4510848,20.3881178 14.3486533,19.3919949 L23.0782967,26.9219038 Z M25.0324028,28.6093322 L28.9484314,31.9854724 C28.6395818,32.3542782 28.3574923,32.7440573 28.1042576,33.1519153 L23.0340036,31.6030741 C23.5797896,30.5331666 24.2518749,29.5304546 25.036311,28.6157483 L25.0324028,28.6093322 Z M45.8762013,33.1519153 C45.6234262,32.7436633 45.3417722,32.3534557 45.0333302,31.9841892 L48.9415425,28.6106155 C49.7247313,29.5272913 50.3954923,30.5317076 50.9399416,31.6030741 L45.8762013,33.1519153 Z M50.9047677,26.923187 L59.6331084,19.4022606 C61.7565731,21.790097 63.5223008,24.4648963 64.8766264,27.3453649 L53.4529221,30.8369944 C52.784084,29.428577 51.9304468,28.1127342 50.9138869,26.923187 L50.9047677,26.923187 Z M50.7666776,5.23684409 L49.0731189,8.78108546 C45.6488378,7.38671139 42.0018157,6.59786678 38.2994806,6.45076601 L38.2994806,2.5895704 C42.5849432,2.7355165 46.8097307,3.63238299 50.7757967,5.23812731 L50.7666776,5.23684409 Z M35.6940057,2.59726969 L35.6940057,6.44691636 C32.0043825,6.59137751 28.3692103,7.37318936 24.9542386,8.75670436 L23.2711018,5.20861335 C27.2226621,3.62121862 31.4288257,2.73706635 35.6940057,2.59726969 L35.6940057,2.59726969 Z M20.8975143,6.2685494 L22.5988893,9.86155296 C19.4954793,11.4161615 16.6559842,13.4360567 14.1819029,15.8490367 L11.1139563,13.2043295 C13.9598161,10.3713474 17.2666073,8.02709012 20.8975143,6.2685494 L20.8975143,6.2685494 Z M9.36568273,15.1034885 L12.3880335,17.7084161 C11.4216316,18.7818765 10.5219715,19.9118826 9.69397256,21.0922555 C8.49824965,22.8274303 7.45613344,24.660619 6.57912742,26.5715859 L2.99529681,25.4770031 C4.50148598,21.6860599 6.65613818,18.1774316 9.36568273,15.1034885 L9.36568273,15.1034885 Z M35.6940057,53.8950948 C35.6940057,53.1863944 36.2772612,52.6118792 36.9967432,52.6118792 C37.7162252,52.6118792 38.2994806,53.1863944 38.2994806,53.8950948 L38.2994806,55.1783103 L35.6940057,55.1783103 L35.6940057,53.8950948 Z M38.2994806,73.6335165 L35.6940057,72.3503009 L35.6940057,57.7447415 L38.2994806,57.7447415 L38.2994806,73.6335165 Z M36.9967432,44.9125859 C35.0652844,44.819754 33.1780026,44.3107628 31.4679256,43.4214894 L36.9967432,38.8814728 L42.5281662,43.4214894 C40.8175832,44.3118277 38.9292104,44.8208732 36.9967432,44.9125859 Z M67.3935151,26.578002 C65.9152899,23.3568847 63.9627467,20.3681846 61.5989391,17.7084161 L64.6551611,15.0739746 C67.3561757,18.1560255 69.5003208,21.6717093 70.9942813,25.4680206 L67.3935151,26.578002 Z"/>
</svg>
