<svg xmlns="http://www.w3.org/2000/svg" width="71" height="77" viewBox="0 0 71 77">
  <rect width="2" height="2" x="25" y="31"/>
  <path d="M11 11.5C11 8.46243388 8.53756612 6 5.5 6 2.46243388 6 0 8.46243388 0 11.5 0 14.5375661 2.46243388 17 5.5 17 8.53756612 17 11 14.5375661 11 11.5zM5.5 14.25C3.98121694 14.25 2.75 13.0187831 2.75 11.5 2.75 9.98121694 3.98121694 8.75 5.5 8.75 7.01878306 8.75 8.25 9.98121694 8.25 11.5 8.25 13.0187831 7.01878306 14.25 5.5 14.25zM60.4814815 18.2765957L60.4814815 24.6595745 10.5185185 24.6595745 10.5185185 18.2765957C10.5185185 17.5715514 9.92985587 17 9.2037037 17L1.31481481 17C.588662644 17 0 17.5715514 0 18.2765957L0 31.0425532C0 31.5917948.362634279 32.0792057.899333333 32.252766L8.78822222 34.8059574 8.87894444 34.832766 18.5388889 37.2238298 19.7222222 46.4408511 19.7222222 50.5489362 12.7326667 52.8110638C12.1959676 52.9846241 11.8337628 53.4720349 11.8333333 54.0212766L11.8333333 69.3404255 10.5185185 69.3404255C8.34006201 69.3404255 6.57407407 71.0550797 6.57407407 73.1702128L6.57407407 75.7234043C6.57407407 76.4284486 7.16273672 77 7.88888889 77L21.037037 77C21.7631892 77 22.3518519 76.4284486 22.3518519 75.7234043L22.3518519 62.6778723 31.715963 60.4042553 39.284037 60.4042553 48.6481481 62.6778723 48.6481481 75.7234043C48.6481481 76.4284486 49.2368108 77 49.962963 77L63.1111111 77C63.8372633 77 64.4259259 76.4284486 64.4259259 75.7234043L64.4259259 73.1702128C64.4259259 71.0550797 62.659938 69.3404255 60.4814815 69.3404255L59.1666667 69.3404255 59.1666667 54.0212766C59.1662372 53.4720349 58.8040324 52.9846241 58.2673333 52.8110638L51.2777778 50.5489362 51.2777778 46.4408511 52.4611111 37.2251064 62.1184259 34.832766 62.2091481 34.8059574 70.098037 32.252766C70.6357752 32.0800915 70.9991939 31.592473 71 31.0425532L71 18.2765957C71 17.5715514 70.4113374 17 69.6851852 17L61.7962963 17C61.0701441 17 60.4814815 17.5715514 60.4814815 18.2765957zM51.1029074 27.212766L50.0668333 35.2680851C48.2523889 35.9676596 42.8116852 37.6131915 39.0592037 33.9697872L37.2000556 35.7748936C39.2662241 37.7838779 42.0893418 38.8840827 45.0126852 38.8195745 46.6034842 38.8042754 48.1832977 38.5616745 49.7013148 38.0995745L48.8019815 45.0851064 22.1888148 45.0851064 21.2921111 38.0982979C22.8121143 38.5616679 24.3942248 38.8047115 25.9873148 38.8195745 28.9105461 38.883483 31.7334299 37.7833694 33.7999444 35.7748936L31.9407963 33.9697872C28.1541296 37.646383 22.7515556 35.9868085 20.9344815 35.2719149L19.9286481 27.4680851 19.8970926 27.212766 51.1029074 27.212766zM32.503537 57.8510638L30.7508889 52.7446809 40.2491111 52.7446809 38.496463 57.8510638 32.503537 57.8510638zM22.3518519 50.1914894L22.3518519 47.6382979 48.6481481 47.6382979 48.6481481 50.1914894 22.3518519 50.1914894zM2.62962963 19.5531915L7.88888889 19.5531915 7.88888889 31.8238298 2.62962963 30.1221277 2.62962963 19.5531915zM10.5185185 32.6038298L10.5185185 27.212766 17.2464259 27.212766 18.1852037 34.5021277 10.5185185 32.6038298zM19.7222222 74.4468085L9.2037037 74.4468085 9.2037037 73.1702128C9.2037037 72.4651684 9.79236635 71.893617 10.5185185 71.893617L19.7222222 71.893617 19.7222222 74.4468085zM20.717537 60.4425532C20.1325351 60.5848414 19.7222381 61.0953029 19.7222222 61.6808511L19.7222222 69.3404255 14.462963 69.3404255 14.462963 54.9417021 21.250037 52.7446809 27.9779444 52.7446809 29.8594444 58.2238298 20.717537 60.4425532zM61.7962963 73.1702128L61.7962963 74.4468085 51.2777778 74.4468085 51.2777778 71.893617 60.4814815 71.893617C61.2076337 71.893617 61.7962963 72.4651684 61.7962963 73.1702128zM56.537037 69.3404255L51.2777778 69.3404255 51.2777778 61.6808511C51.2777619 61.0953029 50.8674649 60.5848414 50.282463 60.4425532L41.1405556 58.2238298 43.0220556 52.7446809 49.749963 52.7446809 56.537037 54.9417021 56.537037 69.3404255zM53.7535741 27.212766L60.4814815 27.212766 60.4814815 32.6038298 52.8200556 34.5021277 53.7535741 27.212766zM63.1111111 19.5531915L68.3703704 19.5531915 68.3703704 30.1221277 63.1111111 31.8238298 63.1111111 19.5531915z"/>
  <rect width="2" height="2" x="44" y="31"/>
  <path d="M71 11.5C71 8.46243388 68.5375661 6 65.5 6 62.4624339 6 60 8.46243388 60 11.5 60 14.5375661 62.4624339 17 65.5 17 68.5375661 17 71 14.5375661 71 11.5zM65.5 14.25C63.9812169 14.25 62.75 13.0187831 62.75 11.5 62.75 9.98121694 63.9812169 8.75 65.5 8.75 67.0187831 8.75 68.25 9.98121694 68.25 11.5 68.25 13.0187831 67.0187831 14.25 65.5 14.25zM39.1363405 0L33.8636204 0C31.6795882 0 29.9090803 1.65918004 29.9090803 3.70588235L29.9090803 4.94117647 28.5909003 4.94117647C28.5737639 4.94117647 28.559264 4.94982353 28.5421276 4.94982353 28.4038386 4.95573601 28.2673455 4.98156809 28.1374464 5.02641176 28.1084464 5.03752941 28.0794464 5.04370588 28.0504465 5.05482353 28.0214465 5.06594118 28.017492 5.06347059 28.0016738 5.07088235L22.7289537 7.54147059C22.2820226 7.75075978 22 8.17885028 22 8.64705882L22 13.5882353C22 14.0564438 22.2820226 14.4845343 22.7289537 14.6938235L27.2727203 16.8222353 27.2727203 19.7647059C27.2727203 20.44694 27.8628896 21 28.5909003 21L44.4090606 21C45.1370714 21 45.7272407 20.44694 45.7272407 19.7647059L45.7272407 16.8222353 50.2710072 14.7C50.7200708 14.4897209 51.002701 14.0586669 50.9999805 13.5882353L50.9999805 8.64705882C50.9999805 8.17885028 50.7179383 7.75075978 50.2710072 7.54147059L44.9982871 5.07088235C44.982469 5.06347059 44.9653326 5.06223529 44.9495145 5.05482353 44.9336963 5.04741176 44.8915145 5.03629412 44.8611964 5.02641176 44.7317247 4.98184623 44.5956436 4.9564247 44.4578333 4.95105882 44.440697 4.94982353 44.426197 4.94117647 44.4090606 4.94117647L43.0908806 4.94117647 43.0908806 3.70588235C43.0908806 1.65918004 41.3203727 0 39.1363405 0zM43.0908806 10.0713529L36.4999805 11.1003529 29.9090803 10.0713529 29.9090803 7.41176471 43.0908806 7.41176471 43.0908806 10.0713529zM32.5454404 3.70588235C32.5454404 3.02364825 33.1356097 2.47058824 33.8636204 2.47058824L39.1363405 2.47058824C39.8643513 2.47058824 40.4545206 3.02364825 40.4545206 3.70588235L40.4545206 4.94117647 32.5454404 4.94117647 32.5454404 3.70588235zM24.6363602 12.8248235L24.6363602 9.41047059 27.2727203 8.17517647 27.2727203 14.0601176 24.6363602 12.8248235zM43.0908806 18.5294118L29.9090803 18.5294118 29.9090803 12.5752941 36.2824808 13.5709412C36.426436 13.5940077 36.573525 13.5940077 36.7174802 13.5709412L43.0908806 12.5752941 43.0908806 18.5294118zM48.3636007 12.8248235L45.7272407 14.0601176 45.7272407 8.17517647 48.3636007 9.41047059 48.3636007 12.8248235z"/>
</svg>
